<?xml version="1.0" encoding="utf-8"?>
<!-- Generator: Adobe Illustrator 25.0.0, SVG Export Plug-In . SVG Version: 6.00 Build 0)  -->
<svg version="1.1" id="image" xmlns="http://www.w3.org/2000/svg" xmlns:xlink="http://www.w3.org/1999/xlink" x="0px" y="0px"
	 viewBox="0 0 512 512" style="enable-background:new 0 0 512 512;" xml:space="preserve">
<style type="text/css">
	.st0{fill:#AD771F;}
	.st1{fill:#FFE02F;}
	.st2{fill:#205E15;}
	.st3{fill:#93BF24;}
	.st4{fill:#5E9909;}
	.st5{fill:#3D7E22;}
</style>
<g id="Layer_3">
	<path id="Trunk" class="st0" d="M280.5,435.8c0,0,1.2,2.7,8,3.3c6.9,0.6,29.8,0.9,38.7-1.5c8.9-2.4,7.1-2.4,5.7-7.1
		c-1.5-4.8-23.2-82.2,2.7-121.8c6.9-8.5,28-12.2,44.7-17.3c13-4,22.9-10.4,22.9-10.4l-2.7-4.8c0,0-30.1,13.1-48.8,14.6
		c-10.1-7.1,38.7-25.9,38.7-25.9l-3.3-2.7l-14.9,4.5l-2.4-2.4l6.6-14.6l-6.3,0.3c0,0-5.1,13.4-21.7,26.8
		c-16.7,13.4-22.3,16.7-22.3,16.7s-4.8,3.6-6-2.4c-1.2-6-2.1-26.2-2.1-34.3c0-1.8,0.3-4.2,0.8-6.9c1.6-9,5.2-20.5,5.2-20.5l-8.3-2.7
		l-11.6,23.5c0,0-7.4,6.9-7.1-3.3s1.2-26.2,1.2-26.2l-7.4,0.3l-0.9,21.1c0,0-0.9,10.1-7.1,5.1c-6.3-5.1-8-21.1-8-21.1l-12.5-10.7
		l-2.7,1.8l3.3,6c0,0,9.2,29.2,8.6,49.1c2.4,13.4-7.4,4.8-7.4,4.8s-28.3-17-36.6-32.8c-8.3-15.8-32.5-43.8-32.5-43.8l-3.3,2.7
		l17.9,24.1c0,0,6.3,13.7-0.9,11.6c-7.1-2.1-25.9-12.5-25.9-12.5l-1.8,4.8c0,0,3.9,4.2,8.6,6.9c4.8,2.7,24.1,12.8,24.1,12.8
		s11.6,8.6,25,18.2c29.5,15.2,37.5,37.5,37.5,37.5s4.8,8,1.8,25.9c-5.4,6-12.8,2.7-12.8,2.7l-17.3-12.5l-14,8.3l-0.3,4.2
		c0,0,28.3,3.9,37.8,16.1s11.9,50.9,11.9,50.9L280.5,435.8z"/>
</g>
<g id="Moon_1_">
	<path class="st1" d="M447.9,350.1c-96.3,81.5-129.4,75.5-184.9,74.5c-67.4-5.9-139.7-63.4-144.7-153.6c-1-4-6.9-134.8,120.6-199.4
		c10-2.3,10-14.5-1.3-16c-125.2,7-221.1,114.2-214,239.5s114.2,221.1,239.5,214c95.7-5.4,174.2-69.2,202.8-155
		C467.5,343.1,453.8,339.5,447.9,350.1z"/>
</g>
<g id="Tree">
	<path id="leaves_1" class="st2" d="M330.3,253.5c0,0-8.9,3.8-11.4-3.6c-2.6-7.4,1.3-10.7,1.3-10.7s-12.2-27.7,24.1-20.8
		c-3.9-32.5,25.9-39.3,25.9-39.3s9.5-3.3,17.6,0c6.3-8,25-11.9,31.6,0.6c3,4.5,2.1,7.6,2.1,7.6s19.2-10.9,20.1,8.2
		c0,0,4.4,0.6,3.4,4c0,0,17.9-7,25.1,6.5c3.7,9.3-1.3,13.8-1.3,13.8s6.5,2.7,8,8.4c1.6,5.7-6,12-6,12s22.8,5.2,10.1,24.1
		c-8.3,7.6-19.2,3.9-19.2,3.9s4.2,3.7,2.2,8.7c-2,5-6.8,0.7-6.8,0.7s1.9,3.8-3.2,5.8c-5.1,2-5.8,0.2-5.8,0.2s5.8,11.6-6.5,19.1
		s-22.1-2-22.9-3c-0.8-1-2-4.5-2-4.5s-4.9,5.2-13.1,3.7c-3.2-0.4-3.6-3.9-3.6-3.9s-4.6,4.6-7.1,0.9c-6.1,7.8-12.6,5.2-12.6,5.2
		s-12.7-1.7-14.1-8.5c-2.7,0.6-12-3-10.5-12.3c-5.2-0.1-12.2-2.7-12.6-10.6c-10.1,1.5-12.7-3.7-12.7-3.7S327.1,261.8,330.3,253.5z"
		/>
	<path id="leaves_4" class="st3" d="M210.5,340.4c0,0,9.8,7,18,4.1c3.9-1.4,6-4.8,9.3-12.8c1.3,2.8,6.8,1.8,6.8,1.8s6.5-2,5.2-12.1
		c0,0,9.6-6.4,8.5-14.5c-1.1-8.2-12.7-8.8-12.7-8.8s-6.8,0.6-8,1.2c-1.2,0.7,3.5-4.5-1.6-10.1c-2.5-3-7.5-1.2-7.5-1.2s0.2-3-3-2.8
		c1.3-2.8,0.1-5-2.8-7.3s-7.9-0.7-10.2,1.4c-6.4-7.9-17.2-9.4-17.2-9.4s-14-5.5-27.4,11.8c-2-1.9-6-0.4-6-0.4s-3.1,2.1-1.6,5.5
		c1.6,3.4-1.2,5.1-1.2,5.1s-9.2,1.7-10.7,6.9c-1.6,5.2-2.1,13,12,16.2c-5.2,5.4-4.4,9.7,0.2,12.7c0,0-3.7,8.5,4.8,10.1
		c8.5,1.6,9.5-0.2,9.5-0.2s1.9,3.7,7,1.6c5.7,7.7,17.1,3,17.1,3S205.1,348.4,210.5,340.4z"/>
	<path id="leaves_3_2_" class="st4" d="M71.4,196.6c0,0-2.1,11.9,8.6,17.3c0,0-9.5,1.8-9.5,11.9s11.3,10.4,11.3,10.4s-11,6,2.7,11.9
		c-7.7,13.1,2.7,17.6,10.1,16.1c2.7,9.8,14.9,7.4,14.9,7.4s1.5,12.8,15.2,17.3c13.7,4.5,19.7-3.3,19.7-3.3s3,8.3,12.5,4.2
		c-0.3,8.3,10.4,3.6,10.4,3.6s9.5,8.9,19.4,1.8c9.8-7.1,4.8-14.9,4.8-14.9s4.2,3.3,8.3,3.3s11.6-0.6,12.2-8.6c0,0,11.3,0.6,18.8-4.8
		s6.3-17,6.3-17s9.2,0,14.9-9.2s-4.5-16.7-4.5-16.7s3-9.5-1.5-13.4c-1.1-0.9-1.3-3.4-10.1-4.9c6.9-6.9,6.1-15.7,3.8-22.3
		c-4.4-12.8-20-14.6-25.9-10.7c4.5-11.4-6.7-23.7-12.8-26.7c-23.7-9.2-38.1,4.8-38.1,4.8s-17.9-9.2-23.2,8.3
		c-9.8-14.3-27.7-4.8-27.7-4.8s-11.7,6.6-8.6,21.4c0,0-16.4-4.8-14,9.2C89.3,188.3,76.1,186.5,71.4,196.6z"/>
	<path id="leave_2" class="st5" d="M307.9,222c0,0,19.4,26.2,40.8-2.1c4.8,3.9,47.7,25,50.9-20c1.8,1.8,14.6,8.3,17-19.4
		c41.1,7.7,43.8-36.3,25.9-42.6c2.7-5.7,22.6-36-22.6-46.2c2.7-7.1-3.1-7-4-5.7c0.6-3,1.9-22.6-20.1-25.3c1.2-6.3-2.7-7.1-2.7-7.1
		S392.5,9.6,347,27.8c-6.3-6.6-15.5-4.5-15.5-4.5S327,6,311.2,17.9c-4.5-9.5-13.4-10.7-20-4.8c-10.7-8.6-24.7-0.6-24.7-0.6
		s-6-14.6-21.1-8.6s-11.9,19.4-11.9,19.4s-15.8-4.8-17,8.6c-7.7-6-12.5,4.8-12.5,4.8s-14.9-6.3-23.5,6.9S187,68,187,68
		s-10.1,0.6-6,11c-9.8-2.7-8.6,6.6-8.6,6.6s-20,0-17.9,17c0,0,0.3,7.4,8.3,16.7c0,0-12.2,4.8-5.4,15.2c-7.7,8.3,0.9,28.9,0.9,28.9
		s8,10.7,21.4,11c0.6,20.6,7.1,26.5,22.3,29.8c-1.5,17,20.6,20.3,20.6,20.3s11-1.2,17.9-6c8.9,6.6,20.3-2.1,20.3-2.1
		S275.2,242.2,307.9,222z"/>
</g>
</svg>
